<?xml version="1.0" encoding="UTF-8" standalone="no"?>
<svg width="152px" height="152px" viewBox="0 0 152 152" version="1.1" xmlns="http://www.w3.org/2000/svg" xmlns:xlink="http://www.w3.org/1999/xlink" xmlns:sketch="http://www.bohemiancoding.com/sketch/ns">
    <!-- Generator: Sketch 3.2.2 (9983) - http://www.bohemiancoding.com/sketch -->
    <title>new_logo</title>
    <desc>Created with Sketch.</desc>
    <defs></defs>
    <g id="Page-1" stroke="none" stroke-width="1" fill="none" fill-rule="evenodd" sketch:type="MSPage">
        <g id="new_logo" sketch:type="MSArtboardGroup">
            <circle id="Oval-1" fill="#4990E2" sketch:type="MSShapeGroup" cx="76" cy="76" r="71"></circle>
            <path d="M54.5900938,143.714985 L20.2598846,109.384776 L71.8223305,57.8223305 L132.717074,118.717074 C119.758444,135.895612 99.1760063,147 76,147 C68.5385925,147 61.3460053,145.849043 54.5900938,143.714985 Z" id="Rectangle-27" fill="#3B73B4" sketch:type="MSShapeGroup"></path>
            <path d="M104.238068,141.16269 L51.4779221,88.4025433 L103.040368,36.8400974 L146.850168,80.6498975 C145.093606,107.820931 128.05308,130.828355 104.238068,141.16269 Z" id="Rectangle-30" fill="#3B73B4" sketch:type="MSShapeGroup"></path>
            <path d="M116.168254,134.55303 L76,94.3847763 L127.562446,42.8223305 L145.321066,60.5809503 C146.420358,65.545257 147,70.7049372 147,76 C147,100.303111 134.789283,121.754256 116.168254,134.55303 Z" id="Rectangle-29" fill="#3B73B4" sketch:type="MSShapeGroup"></path>
            <path d="M29.4436508,40.9583694 L52.0242725,47.873708 L60.5563492,89.0416306 L29.4436508,89.0416306 L29.4436508,40.9583694 Z" id="Rectangle-28" fill="#3B73B4" sketch:type="MSShapeGroup" transform="translate(45.000000, 65.000000) rotate(-135.000000) translate(-45.000000, -65.000000) "></path>
            <text id="D" sketch:type="MSTextLayer" font-family="Helvetica Neue" font-size="102" font-style="italic" font-weight="bold" fill="#FFFFFF">
                <tspan x="65" y="110">D</tspan>
            </text>
            <text id="H" sketch:type="MSTextLayer" font-family="Helvetica Neue" font-size="101" font-style="italic" font-weight="bold" fill="#FFFFFF">
                <tspan x="20.5" y="109.5">H</tspan>
            </text>
        </g>
    </g>
</svg>